<?xml version="1.0" encoding="utf-8"?>
<!-- Generator: Adobe Illustrator 19.2.0, SVG Export Plug-In . SVG Version: 6.00 Build 0)  -->
<svg version="1.1" id="Layer_1" xmlns="http://www.w3.org/2000/svg" xmlns:xlink="http://www.w3.org/1999/xlink" x="0px" y="0px"
	 viewBox="0 0 1000 563" style="enable-background:new 0 0 1000 563;" xml:space="preserve">
<style type="text/css">
	.st0{fill:#231F20;}
</style>
<path class="st0" d="M89,245.6h13.7c3.5,0,6.2,1,8,2.7c1.3,1.3,2,3,2,5v0.1c0,3.7-2.1,5.6-4.3,6.8c3.6,1.2,6,3.3,6,7.4v0.1
	c0,5.4-4.5,8.4-11.3,8.4H89V245.6z M101.6,258.4c3.4,0,5.7-1.3,5.7-4.1v-0.1c0-2.4-1.9-3.9-5.3-3.9h-7.7v8.1H101.6z M103.1,271.3
	c3.7,0,5.9-1.4,5.9-4.2V267c0-2.6-2-4.1-6.3-4.1h-8.5v8.4H103.1z"/>
<path class="st0" d="M131.3,245.6h22.6v4.8h-17.2v7.9h15.3v4.8h-15.3v8.2h17.4v4.8h-22.8V245.6z"/>
<path class="st0" d="M168.7,245.6h5.9l9.2,23.4l9.1-23.4h5.8l-12.7,30.7h-4.7L168.7,245.6z"/>
<path class="st0" d="M214.9,245.6h22.6v4.8h-17.2v7.9h15.3v4.8h-15.3v8.2h17.4v4.8h-22.8V245.6z"/>
<path class="st0" d="M254.9,245.6h13.6c3.8,0,6.8,1.1,8.8,3c1.6,1.7,2.5,3.9,2.5,6.6v0.1c0,5-3,8-7.3,9.2l8.2,11.5h-6.3l-7.5-10.6
	h-6.7V276h-5.4V245.6z M268.1,260.7c3.8,0,6.3-2,6.3-5.1v-0.1c0-3.3-2.3-5-6.3-5h-7.8v10.2H268.1z"/>
<path class="st0" d="M297.2,245.6h5.4v25.6h16v4.9h-21.4V245.6z"/>
<path class="st0" d="M338.4,264l-12.1-18.4h6.3l8.5,13.5l8.6-13.5h6.1l-12.1,18.3V276h-5.4V264z"/>
<path class="st0" d="M395.4,245.6h5.7l9.3,14.4l9.3-14.4h5.7V276h-5.4v-21.8l-9.6,14.4h-0.2l-9.5-14.3V276h-5.3V245.6z"/>
<path class="st0" d="M539.8,245.6h5l16.3,21.1v-21.1h5.3V276h-4.5L545,254.4V276h-5.3V245.6z"/>
<path d="M470,249.4c-2.8-2.7-6.6-4.4-11.1-4.4c-9.4,0-15.9,7.2-15.9,15.7v0.1c0,4.3,1.5,8.3,4.4,11.1c2.8,2.8,6.9,4.5,11.5,4.5
	c9.3,0,16.1-7.2,16.1-15.7v-0.1C475,256.3,473,252.3,470,249.4z"/>
<path d="M517.5,249.4c-2.8-2.7-6.3-4.4-10.8-4.4c-9.4,0-15.6,7.2-15.6,15.7v0.1c0,4.3,1.4,8.3,4.3,11.1c2.8,2.8,6.4,4.5,11,4.5
	c9.3,0,15.7-7.2,15.7-15.7v-0.1C522,256.3,520.4,252.3,517.5,249.4z"/>
</svg>
